<svg xmlns="http://www.w3.org/2000/svg" xmlns:xlink="http://www.w3.org/1999/xlink" version="1.1" width="256" height="256" viewBox="0 0 256 256" xml:space="preserve">

<defs>
</defs>
<g style="stroke: none; stroke-width: 0; stroke-dasharray: none; stroke-linecap: butt; stroke-linejoin: miter; stroke-miterlimit: 10; fill: none; fill-rule: nonzero; opacity: 1;" transform="translate(1.4065934065934016 1.4065934065934016) scale(2.81 2.81)" >
	<path d="M 45 0 L 45 0 C 20.147 0 0 20.147 0 45 v 0 c 0 24.853 20.147 45 45 45 h 45 V 45 C 90 20.147 69.853 0 45 0 z M 32.546 67.5 h -9.345 V 37.442 h 9.345 V 67.5 z M 27.874 33.335 c -2.994 0 -5.414 -2.427 -5.414 -5.416 c 0 -2.992 2.42 -5.419 5.414 -5.419 c 2.987 0 5.414 2.427 5.414 5.419 C 33.288 30.908 30.861 33.335 27.874 33.335 z M 67.54 67.5 h -9.338 V 52.883 c 0 -3.487 -0.061 -7.97 -4.855 -7.97 c -4.862 0 -5.603 3.8 -5.603 7.72 V 67.5 h -9.338 V 37.442 h 8.961 v 4.11 h 0.128 c 1.247 -2.364 4.296 -4.855 8.839 -4.855 c 9.46 0 11.206 6.224 11.206 14.317 V 67.5 z" style="stroke: none; stroke-width: 1; stroke-dasharray: none; stroke-linecap: butt; stroke-linejoin: miter; stroke-miterlimit: 10; fill: rgb(0,0,0); fill-rule: nonzero; opacity: 1;" transform=" matrix(1 0 0 1 0 0) " stroke-linecap="round" />
</g>
</svg>